<?xml version="1.0" standalone="no"?><!DOCTYPE svg PUBLIC "-//W3C//DTD SVG 1.1//EN" "http://www.w3.org/Graphics/SVG/1.1/DTD/svg11.dtd"><svg t="1735201640623" class="icon" viewBox="0 0 1024 1024" version="1.1" xmlns="http://www.w3.org/2000/svg" p-id="9580" width="16" height="16" xmlns:xlink="http://www.w3.org/1999/xlink"><path d="M574 651.4h160.3c38.8 0 71-9.2 96.6-27.5 28.6-20.4 42.9-51 42.9-91.8 0-46-11.3-80.9-33.8-104.7-23.2-24.5-60-39.5-110.3-45.1-4.2-0.5-8.2-1.5-12.1-3.2-3.9-1.7-7.4-3.9-10.6-6.6-3.2-2.7-6-5.8-8.3-9.4-2.3-3.5-4-7.3-5.2-11.4-23-80.5-83.5-120.8-181.5-120.8-58.3 0-102.5 16.8-132.6 50.3-19.7 21.9-36 55.5-48.9 100.8-0.6 2.2-1.4 4.3-2.4 6.4-1 2.1-2.1 4.1-3.4 5.9-1.3 1.9-2.7 3.7-4.3 5.3-1.6 1.7-3.3 3.2-5.1 4.6-1.8 1.4-3.8 2.6-5.8 3.7s-4.1 2-6.3 2.7c-2.2 0.7-4.4 1.3-6.6 1.6-2.3 0.4-4.5 0.6-6.8 0.6-27.6 0-55.5 8.8-83.6 26.4-37.2 23.3-55.8 57.6-55.8 102.9 0 38.1 15.1 66.5 45.4 85.1 26.1 16 57.5 24 94 24 2.8 0 5.5 0.3 8.3 0.8 2.7 0.5 5.4 1.3 8 2.4 2.6 1.1 5 2.4 7.3 3.9s4.5 3.3 6.4 5.3c2 2 3.7 4.1 5.3 6.4 1.5 2.3 2.9 4.8 3.9 7.3 1.1 2.6 1.9 5.2 2.4 8 0.5 2.7 0.8 5.5 0.8 8.3 0 2.8-0.3 5.5-0.8 8.3-0.5 2.7-1.3 5.4-2.4 8-1.1 2.6-2.4 5-3.9 7.3s-3.3 4.5-5.3 6.4c-2 2-4.1 3.7-6.4 5.3s-4.8 2.9-7.3 3.9c-2.6 1.1-5.2 1.9-8 2.4-2.7 0.5-5.5 0.8-8.3 0.8-52.5 0-98.7-12.2-138.4-36.6-57.4-34.8-86-87.3-86-157.1 0-76.7 31.9-135 95.7-174.9 31.7-19.8 64-32.1 96.8-37 15.4-44.2 34.8-79.4 58.3-105.7 46.9-52.3 112.2-78.5 195.8-78.5 74.6 0 135.7 19.6 183.6 58.9 31.6 25.9 55.1 58.2 70.5 96.8 57.8 10.5 102.9 32.8 135.5 67.2 38.1 40.2 57.1 94.5 57.1 163.1 0 69.9-26.1 123.5-78.4 160.8-40.4 28.8-89 43.3-145.9 43.3H574l28.6 28.6c4 4 7 8.6 9.2 13.8 2.2 5.2 3.2 10.6 3.2 16.2s-1.1 11-3.2 16.2c-2.2 5.2-5.2 9.8-9.2 13.8-4 4-8.6 7-13.8 9.2-5.2 2.2-10.6 3.2-16.2 3.2s-11-1.1-16.2-3.2c-5.2-2.2-9.8-5.2-13.8-9.2l-101-101c-3.7-3.7-6.6-8-8.8-12.8s-3.3-9.8-3.6-15.1c0-0.7-0.1-1.4-0.1-2.1 0-5.7 1.1-11.2 3.3-16.5 2.2-5.3 5.4-9.9 9.5-13.9l100.7-100.7c4-4 8.6-7 13.8-9.2 5.2-2.2 10.6-3.2 16.2-3.2s11 1.1 16.2 3.2c5.2 2.2 9.8 5.2 13.8 9.2 4 4 7 8.6 9.2 13.8 2.2 5.2 3.2 10.6 3.2 16.2s-1.1 11-3.2 16.2c-2.2 5.2-5.2 9.8-9.2 13.8L574 651.4z" fill="#afb1b3" fill-opacity=".5" p-id="9581"></path></svg>