<?xml version="1.0" standalone="no"?><!DOCTYPE svg PUBLIC "-//W3C//DTD SVG 1.1//EN" "http://www.w3.org/Graphics/SVG/1.1/DTD/svg11.dtd"><svg t="1735090654094" class="icon" viewBox="0 0 1024 1024" version="1.1" xmlns="http://www.w3.org/2000/svg" p-id="8963" width="16" height="16" xmlns:xlink="http://www.w3.org/1999/xlink"><path d="M183.52 910.336c-17.184 0-31.328-13.888-31.328-30.88 0-17.664 14.176-30.912 31.328-30.912h257.024v-92.736H261.472c-7.712 0-15.904-3.072-22.048-8.832l-96.096-96.736c-11.904-11.904-12.352-31.328 0-43.712l94.944-94.72c5.312-6.56 14.112-10.816 23.168-10.816h179.072v-65.12H264.768c-17.216 0-31.328-13.888-31.328-30.88v-192.8c0-17.216 14.112-31.136 31.328-31.136h175.744v-48.768c0-10.144 8.384-18.528 19.008-18.528h104.896c10.592 0 18.784 8.384 18.784 18.528v48.8h179.264c8.576 0 16.32 3.776 22.048 9.088l96.096 96.704c12.128 11.936 12.128 31.84 0 43.712l-0.448 0.672-95.648 95.616c-6.144 6.176-14.336 9.056-22.048 9.056H583.2v65.12h175.968c17.216 0 30.88 13.92 30.88 31.072V724.96c0 17.184-13.664 30.88-30.88 30.88H583.2v92.736h257.44c17.216 0 30.656 13.248 30.656 30.912 0 16.992-13.472 30.88-30.656 30.88H183.488z m294.368-61.824h68.224v-92.736h-68.224v92.736z m68.224-697.504h-68.224v29.984h68.224v-29.984z m0 349.952v-65.12h-68.224v65.12h68.224z m203.36-257.472H295.68v130.304h453.76l65.6-65.344-65.568-64.96zM728.32 563.2H274.528l-65.6 65.184 65.6 65.568H728.32v-130.72z" fill="#6E6E6E" p-id="8964"></path></svg>